<mxfile host="app.diagrams.net" agent="Mozilla/5.0 (Windows NT 10.0; Win64; x64) AppleWebKit/537.36 (KHTML, like Gecko) Chrome/135.0.0.0 Safari/537.36" version="26.2.14">
  <diagram name="Page-1" id="186pkFL4CmVE_UwIFC07">
    <mxGraphModel dx="713" dy="1928" grid="1" gridSize="10" guides="1" tooltips="1" connect="1" arrows="1" fold="1" page="1" pageScale="1" pageWidth="827" pageHeight="1169" math="0" shadow="0">
      <root>
        <mxCell id="0" />
        <mxCell id="1" parent="0" />
        <mxCell id="O5UgsvlEtAjROx63nmzW-35" style="edgeStyle=orthogonalEdgeStyle;rounded=0;orthogonalLoop=1;jettySize=auto;html=1;entryX=0.5;entryY=0;entryDx=0;entryDy=0;endArrow=none;startFill=0;" edge="1" parent="1" source="O5UgsvlEtAjROx63nmzW-6" target="O5UgsvlEtAjROx63nmzW-34">
          <mxGeometry relative="1" as="geometry" />
        </mxCell>
        <mxCell id="O5UgsvlEtAjROx63nmzW-50" value="1,n" style="edgeLabel;html=1;align=center;verticalAlign=middle;resizable=0;points=[];" vertex="1" connectable="0" parent="O5UgsvlEtAjROx63nmzW-35">
          <mxGeometry x="-0.0811" y="-1" relative="1" as="geometry">
            <mxPoint as="offset" />
          </mxGeometry>
        </mxCell>
        <mxCell id="O5UgsvlEtAjROx63nmzW-43" style="edgeStyle=orthogonalEdgeStyle;rounded=0;orthogonalLoop=1;jettySize=auto;html=1;endArrow=none;startFill=0;" edge="1" parent="1" source="O5UgsvlEtAjROx63nmzW-6" target="O5UgsvlEtAjROx63nmzW-42">
          <mxGeometry relative="1" as="geometry">
            <Array as="points">
              <mxPoint x="480" y="-626" />
            </Array>
          </mxGeometry>
        </mxCell>
        <mxCell id="O5UgsvlEtAjROx63nmzW-48" value="1,n" style="edgeLabel;html=1;align=center;verticalAlign=middle;resizable=0;points=[];" vertex="1" connectable="0" parent="O5UgsvlEtAjROx63nmzW-43">
          <mxGeometry x="-0.0717" y="-1" relative="1" as="geometry">
            <mxPoint as="offset" />
          </mxGeometry>
        </mxCell>
        <mxCell id="O5UgsvlEtAjROx63nmzW-53" style="edgeStyle=orthogonalEdgeStyle;rounded=0;orthogonalLoop=1;jettySize=auto;html=1;endArrow=none;startFill=0;" edge="1" parent="1" source="O5UgsvlEtAjROx63nmzW-6" target="O5UgsvlEtAjROx63nmzW-45">
          <mxGeometry relative="1" as="geometry" />
        </mxCell>
        <mxCell id="O5UgsvlEtAjROx63nmzW-55" value="0,n" style="edgeLabel;html=1;align=center;verticalAlign=middle;resizable=0;points=[];" vertex="1" connectable="0" parent="O5UgsvlEtAjROx63nmzW-53">
          <mxGeometry x="0.0516" y="-4" relative="1" as="geometry">
            <mxPoint as="offset" />
          </mxGeometry>
        </mxCell>
        <mxCell id="O5UgsvlEtAjROx63nmzW-58" style="edgeStyle=orthogonalEdgeStyle;rounded=0;orthogonalLoop=1;jettySize=auto;html=1;entryX=0.5;entryY=0;entryDx=0;entryDy=0;endArrow=none;startFill=0;" edge="1" parent="1" source="O5UgsvlEtAjROx63nmzW-6" target="O5UgsvlEtAjROx63nmzW-57">
          <mxGeometry relative="1" as="geometry">
            <Array as="points">
              <mxPoint x="330" y="-616" />
            </Array>
          </mxGeometry>
        </mxCell>
        <mxCell id="O5UgsvlEtAjROx63nmzW-60" value="0,1" style="edgeLabel;html=1;align=center;verticalAlign=middle;resizable=0;points=[];" vertex="1" connectable="0" parent="O5UgsvlEtAjROx63nmzW-58">
          <mxGeometry x="0.2706" y="1" relative="1" as="geometry">
            <mxPoint x="-4" as="offset" />
          </mxGeometry>
        </mxCell>
        <mxCell id="O5UgsvlEtAjROx63nmzW-63" style="edgeStyle=orthogonalEdgeStyle;rounded=0;orthogonalLoop=1;jettySize=auto;html=1;entryX=0;entryY=0.5;entryDx=0;entryDy=0;endArrow=none;startFill=0;" edge="1" parent="1" source="O5UgsvlEtAjROx63nmzW-6" target="O5UgsvlEtAjROx63nmzW-30">
          <mxGeometry relative="1" as="geometry">
            <Array as="points">
              <mxPoint x="280" y="-676" />
              <mxPoint x="280" y="-676" />
            </Array>
          </mxGeometry>
        </mxCell>
        <mxCell id="O5UgsvlEtAjROx63nmzW-79" value="0,1" style="edgeLabel;html=1;align=center;verticalAlign=middle;resizable=0;points=[];" vertex="1" connectable="0" parent="O5UgsvlEtAjROx63nmzW-63">
          <mxGeometry x="0.0923" y="1" relative="1" as="geometry">
            <mxPoint as="offset" />
          </mxGeometry>
        </mxCell>
        <mxCell id="O5UgsvlEtAjROx63nmzW-6" value="Soldat" style="swimlane;fontStyle=0;childLayout=stackLayout;horizontal=1;startSize=26;horizontalStack=0;resizeParent=1;resizeParentMax=0;resizeLast=0;collapsible=1;marginBottom=0;align=center;fontSize=14;" vertex="1" parent="1">
          <mxGeometry x="80" y="-796" width="160" height="176" as="geometry" />
        </mxCell>
        <mxCell id="O5UgsvlEtAjROx63nmzW-7" value="&lt;u&gt;sol_id&lt;/u&gt;" style="text;strokeColor=none;fillColor=none;spacingLeft=4;spacingRight=4;overflow=hidden;rotatable=0;points=[[0,0.5],[1,0.5]];portConstraint=eastwest;fontSize=12;whiteSpace=wrap;html=1;" vertex="1" parent="O5UgsvlEtAjROx63nmzW-6">
          <mxGeometry y="26" width="160" height="30" as="geometry" />
        </mxCell>
        <mxCell id="O5UgsvlEtAjROx63nmzW-8" value="sol_nom" style="text;strokeColor=none;fillColor=none;spacingLeft=4;spacingRight=4;overflow=hidden;rotatable=0;points=[[0,0.5],[1,0.5]];portConstraint=eastwest;fontSize=12;whiteSpace=wrap;html=1;" vertex="1" parent="O5UgsvlEtAjROx63nmzW-6">
          <mxGeometry y="56" width="160" height="30" as="geometry" />
        </mxCell>
        <mxCell id="O5UgsvlEtAjROx63nmzW-9" value="sol_prenom" style="text;strokeColor=none;fillColor=none;spacingLeft=4;spacingRight=4;overflow=hidden;rotatable=0;points=[[0,0.5],[1,0.5]];portConstraint=eastwest;fontSize=12;whiteSpace=wrap;html=1;" vertex="1" parent="O5UgsvlEtAjROx63nmzW-6">
          <mxGeometry y="86" width="160" height="30" as="geometry" />
        </mxCell>
        <mxCell id="O5UgsvlEtAjROx63nmzW-33" value="sol_date_naissance" style="text;strokeColor=none;fillColor=none;spacingLeft=4;spacingRight=4;overflow=hidden;rotatable=0;points=[[0,0.5],[1,0.5]];portConstraint=eastwest;fontSize=12;whiteSpace=wrap;html=1;" vertex="1" parent="O5UgsvlEtAjROx63nmzW-6">
          <mxGeometry y="116" width="160" height="30" as="geometry" />
        </mxCell>
        <mxCell id="O5UgsvlEtAjROx63nmzW-62" value="sol_date_deces" style="text;strokeColor=none;fillColor=none;spacingLeft=4;spacingRight=4;overflow=hidden;rotatable=0;points=[[0,0.5],[1,0.5]];portConstraint=eastwest;fontSize=12;whiteSpace=wrap;html=1;" vertex="1" parent="O5UgsvlEtAjROx63nmzW-6">
          <mxGeometry y="146" width="160" height="30" as="geometry" />
        </mxCell>
        <mxCell id="O5UgsvlEtAjROx63nmzW-10" value="Bataille" style="swimlane;fontStyle=0;childLayout=stackLayout;horizontal=1;startSize=26;horizontalStack=0;resizeParent=1;resizeParentMax=0;resizeLast=0;collapsible=1;marginBottom=0;align=center;fontSize=14;" vertex="1" parent="1">
          <mxGeometry x="620" y="-636" width="160" height="176" as="geometry" />
        </mxCell>
        <mxCell id="O5UgsvlEtAjROx63nmzW-80" value="&lt;u&gt;bat_id&lt;/u&gt;" style="text;strokeColor=none;fillColor=none;spacingLeft=4;spacingRight=4;overflow=hidden;rotatable=0;points=[[0,0.5],[1,0.5]];portConstraint=eastwest;fontSize=12;whiteSpace=wrap;html=1;" vertex="1" parent="O5UgsvlEtAjROx63nmzW-10">
          <mxGeometry y="26" width="160" height="30" as="geometry" />
        </mxCell>
        <mxCell id="O5UgsvlEtAjROx63nmzW-11" value="bat_nom" style="text;strokeColor=none;fillColor=none;spacingLeft=4;spacingRight=4;overflow=hidden;rotatable=0;points=[[0,0.5],[1,0.5]];portConstraint=eastwest;fontSize=12;whiteSpace=wrap;html=1;" vertex="1" parent="O5UgsvlEtAjROx63nmzW-10">
          <mxGeometry y="56" width="160" height="30" as="geometry" />
        </mxCell>
        <mxCell id="O5UgsvlEtAjROx63nmzW-12" value="bat_lieu" style="text;strokeColor=none;fillColor=none;spacingLeft=4;spacingRight=4;overflow=hidden;rotatable=0;points=[[0,0.5],[1,0.5]];portConstraint=eastwest;fontSize=12;whiteSpace=wrap;html=1;" vertex="1" parent="O5UgsvlEtAjROx63nmzW-10">
          <mxGeometry y="86" width="160" height="30" as="geometry" />
        </mxCell>
        <mxCell id="O5UgsvlEtAjROx63nmzW-13" value="bat_debut" style="text;strokeColor=none;fillColor=none;spacingLeft=4;spacingRight=4;overflow=hidden;rotatable=0;points=[[0,0.5],[1,0.5]];portConstraint=eastwest;fontSize=12;whiteSpace=wrap;html=1;" vertex="1" parent="O5UgsvlEtAjROx63nmzW-10">
          <mxGeometry y="116" width="160" height="30" as="geometry" />
        </mxCell>
        <mxCell id="O5UgsvlEtAjROx63nmzW-19" value="bat_fin" style="text;strokeColor=none;fillColor=none;spacingLeft=4;spacingRight=4;overflow=hidden;rotatable=0;points=[[0,0.5],[1,0.5]];portConstraint=eastwest;fontSize=12;whiteSpace=wrap;html=1;" vertex="1" parent="O5UgsvlEtAjROx63nmzW-10">
          <mxGeometry y="146" width="160" height="30" as="geometry" />
        </mxCell>
        <mxCell id="O5UgsvlEtAjROx63nmzW-14" value="Ville" style="swimlane;fontStyle=0;childLayout=stackLayout;horizontal=1;startSize=26;horizontalStack=0;resizeParent=1;resizeParentMax=0;resizeLast=0;collapsible=1;marginBottom=0;align=center;fontSize=14;" vertex="1" parent="1">
          <mxGeometry x="280" y="-356" width="160" height="116" as="geometry" />
        </mxCell>
        <mxCell id="O5UgsvlEtAjROx63nmzW-15" value="&lt;u&gt;vil_id&lt;/u&gt;" style="text;strokeColor=none;fillColor=none;spacingLeft=4;spacingRight=4;overflow=hidden;rotatable=0;points=[[0,0.5],[1,0.5]];portConstraint=eastwest;fontSize=12;whiteSpace=wrap;html=1;" vertex="1" parent="O5UgsvlEtAjROx63nmzW-14">
          <mxGeometry y="26" width="160" height="30" as="geometry" />
        </mxCell>
        <mxCell id="O5UgsvlEtAjROx63nmzW-16" value="vil_nom" style="text;strokeColor=none;fillColor=none;spacingLeft=4;spacingRight=4;overflow=hidden;rotatable=0;points=[[0,0.5],[1,0.5]];portConstraint=eastwest;fontSize=12;whiteSpace=wrap;html=1;" vertex="1" parent="O5UgsvlEtAjROx63nmzW-14">
          <mxGeometry y="56" width="160" height="30" as="geometry" />
        </mxCell>
        <mxCell id="O5UgsvlEtAjROx63nmzW-17" value="vil_cp" style="text;strokeColor=none;fillColor=none;spacingLeft=4;spacingRight=4;overflow=hidden;rotatable=0;points=[[0,0.5],[1,0.5]];portConstraint=eastwest;fontSize=12;whiteSpace=wrap;html=1;" vertex="1" parent="O5UgsvlEtAjROx63nmzW-14">
          <mxGeometry y="86" width="160" height="30" as="geometry" />
        </mxCell>
        <mxCell id="O5UgsvlEtAjROx63nmzW-22" value="Grade" style="swimlane;fontStyle=0;childLayout=stackLayout;horizontal=1;startSize=26;horizontalStack=0;resizeParent=1;resizeParentMax=0;resizeLast=0;collapsible=1;marginBottom=0;align=center;fontSize=14;" vertex="1" parent="1">
          <mxGeometry x="80" y="-356" width="160" height="86" as="geometry" />
        </mxCell>
        <mxCell id="O5UgsvlEtAjROx63nmzW-23" value="&lt;u&gt;gra_id&lt;/u&gt;" style="text;strokeColor=none;fillColor=none;spacingLeft=4;spacingRight=4;overflow=hidden;rotatable=0;points=[[0,0.5],[1,0.5]];portConstraint=eastwest;fontSize=12;whiteSpace=wrap;html=1;" vertex="1" parent="O5UgsvlEtAjROx63nmzW-22">
          <mxGeometry y="26" width="160" height="30" as="geometry" />
        </mxCell>
        <mxCell id="O5UgsvlEtAjROx63nmzW-24" value="gra_nom" style="text;strokeColor=none;fillColor=none;spacingLeft=4;spacingRight=4;overflow=hidden;rotatable=0;points=[[0,0.5],[1,0.5]];portConstraint=eastwest;fontSize=12;whiteSpace=wrap;html=1;" vertex="1" parent="O5UgsvlEtAjROx63nmzW-22">
          <mxGeometry y="56" width="160" height="30" as="geometry" />
        </mxCell>
        <mxCell id="O5UgsvlEtAjROx63nmzW-26" value="Unite_rattachement" style="swimlane;fontStyle=0;childLayout=stackLayout;horizontal=1;startSize=26;horizontalStack=0;resizeParent=1;resizeParentMax=0;resizeLast=0;collapsible=1;marginBottom=0;align=center;fontSize=14;" vertex="1" parent="1">
          <mxGeometry x="480" y="-356" width="160" height="86" as="geometry" />
        </mxCell>
        <mxCell id="O5UgsvlEtAjROx63nmzW-27" value="&lt;u&gt;uni_id&lt;/u&gt;" style="text;strokeColor=none;fillColor=none;spacingLeft=4;spacingRight=4;overflow=hidden;rotatable=0;points=[[0,0.5],[1,0.5]];portConstraint=eastwest;fontSize=12;whiteSpace=wrap;html=1;" vertex="1" parent="O5UgsvlEtAjROx63nmzW-26">
          <mxGeometry y="26" width="160" height="30" as="geometry" />
        </mxCell>
        <mxCell id="O5UgsvlEtAjROx63nmzW-28" value="uni_nom" style="text;strokeColor=none;fillColor=none;spacingLeft=4;spacingRight=4;overflow=hidden;rotatable=0;points=[[0,0.5],[1,0.5]];portConstraint=eastwest;fontSize=12;whiteSpace=wrap;html=1;" vertex="1" parent="O5UgsvlEtAjROx63nmzW-26">
          <mxGeometry y="56" width="160" height="30" as="geometry" />
        </mxCell>
        <mxCell id="O5UgsvlEtAjROx63nmzW-30" value="&lt;b&gt;Décéder lors de&lt;/b&gt;" style="ellipse;whiteSpace=wrap;html=1;" vertex="1" parent="1">
          <mxGeometry x="370" y="-716" width="120" height="80" as="geometry" />
        </mxCell>
        <mxCell id="O5UgsvlEtAjROx63nmzW-32" style="edgeStyle=orthogonalEdgeStyle;rounded=0;orthogonalLoop=1;jettySize=auto;html=1;entryX=0;entryY=0.137;entryDx=0;entryDy=0;entryPerimeter=0;endArrow=none;startFill=0;" edge="1" parent="1" source="O5UgsvlEtAjROx63nmzW-30" target="O5UgsvlEtAjROx63nmzW-10">
          <mxGeometry relative="1" as="geometry" />
        </mxCell>
        <mxCell id="O5UgsvlEtAjROx63nmzW-47" value="1,n" style="edgeLabel;html=1;align=center;verticalAlign=middle;resizable=0;points=[];" vertex="1" connectable="0" parent="O5UgsvlEtAjROx63nmzW-32">
          <mxGeometry y="-1" relative="1" as="geometry">
            <mxPoint as="offset" />
          </mxGeometry>
        </mxCell>
        <mxCell id="O5UgsvlEtAjROx63nmzW-36" style="edgeStyle=orthogonalEdgeStyle;rounded=0;orthogonalLoop=1;jettySize=auto;html=1;entryX=0.5;entryY=0;entryDx=0;entryDy=0;endArrow=none;startFill=0;" edge="1" parent="1" source="O5UgsvlEtAjROx63nmzW-34" target="O5UgsvlEtAjROx63nmzW-22">
          <mxGeometry relative="1" as="geometry" />
        </mxCell>
        <mxCell id="O5UgsvlEtAjROx63nmzW-51" value="0,n" style="edgeLabel;html=1;align=center;verticalAlign=middle;resizable=0;points=[];" vertex="1" connectable="0" parent="O5UgsvlEtAjROx63nmzW-36">
          <mxGeometry x="-0.2667" y="-1" relative="1" as="geometry">
            <mxPoint as="offset" />
          </mxGeometry>
        </mxCell>
        <mxCell id="O5UgsvlEtAjROx63nmzW-34" value="&lt;b&gt;obtenir&lt;/b&gt;&lt;div&gt;obt_date&lt;/div&gt;" style="ellipse;whiteSpace=wrap;html=1;" vertex="1" parent="1">
          <mxGeometry x="100" y="-546" width="120" height="80" as="geometry" />
        </mxCell>
        <mxCell id="O5UgsvlEtAjROx63nmzW-44" style="edgeStyle=orthogonalEdgeStyle;rounded=0;orthogonalLoop=1;jettySize=auto;html=1;entryX=0.5;entryY=0;entryDx=0;entryDy=0;endArrow=none;startFill=0;" edge="1" parent="1" source="O5UgsvlEtAjROx63nmzW-42" target="O5UgsvlEtAjROx63nmzW-26">
          <mxGeometry relative="1" as="geometry" />
        </mxCell>
        <mxCell id="O5UgsvlEtAjROx63nmzW-49" value="0,n" style="edgeLabel;html=1;align=center;verticalAlign=middle;resizable=0;points=[];" vertex="1" connectable="0" parent="O5UgsvlEtAjROx63nmzW-44">
          <mxGeometry x="0.0456" y="-1" relative="1" as="geometry">
            <mxPoint as="offset" />
          </mxGeometry>
        </mxCell>
        <mxCell id="O5UgsvlEtAjROx63nmzW-42" value="&lt;b&gt;est rattaché à&lt;/b&gt;&lt;div&gt;rat_date&lt;/div&gt;" style="ellipse;whiteSpace=wrap;html=1;" vertex="1" parent="1">
          <mxGeometry x="413.5" y="-536" width="120" height="80" as="geometry" />
        </mxCell>
        <mxCell id="O5UgsvlEtAjROx63nmzW-54" style="edgeStyle=orthogonalEdgeStyle;rounded=0;orthogonalLoop=1;jettySize=auto;html=1;entryX=0.5;entryY=0;entryDx=0;entryDy=0;endArrow=none;startFill=0;" edge="1" parent="1" source="O5UgsvlEtAjROx63nmzW-45" target="O5UgsvlEtAjROx63nmzW-10">
          <mxGeometry relative="1" as="geometry" />
        </mxCell>
        <mxCell id="O5UgsvlEtAjROx63nmzW-56" value="0,n" style="edgeLabel;html=1;align=center;verticalAlign=middle;resizable=0;points=[];" vertex="1" connectable="0" parent="O5UgsvlEtAjROx63nmzW-54">
          <mxGeometry x="-0.1611" y="-1" relative="1" as="geometry">
            <mxPoint as="offset" />
          </mxGeometry>
        </mxCell>
        <mxCell id="O5UgsvlEtAjROx63nmzW-45" value="&lt;b&gt;Blesser&lt;/b&gt;&lt;div&gt;&lt;span style=&quot;background-color: transparent; color: light-dark(rgb(0, 0, 0), rgb(255, 255, 255));&quot;&gt;ble_date&lt;/span&gt;&lt;/div&gt;" style="ellipse;whiteSpace=wrap;html=1;" vertex="1" parent="1">
          <mxGeometry x="370" y="-816" width="120" height="80" as="geometry" />
        </mxCell>
        <mxCell id="O5UgsvlEtAjROx63nmzW-59" style="edgeStyle=orthogonalEdgeStyle;rounded=0;orthogonalLoop=1;jettySize=auto;html=1;entryX=0.5;entryY=0;entryDx=0;entryDy=0;endArrow=none;startFill=0;" edge="1" parent="1" source="O5UgsvlEtAjROx63nmzW-57" target="O5UgsvlEtAjROx63nmzW-14">
          <mxGeometry relative="1" as="geometry" />
        </mxCell>
        <mxCell id="O5UgsvlEtAjROx63nmzW-61" value="1,n" style="edgeLabel;html=1;align=center;verticalAlign=middle;resizable=0;points=[];" vertex="1" connectable="0" parent="O5UgsvlEtAjROx63nmzW-59">
          <mxGeometry x="-0.0154" y="1" relative="1" as="geometry">
            <mxPoint as="offset" />
          </mxGeometry>
        </mxCell>
        <mxCell id="O5UgsvlEtAjROx63nmzW-57" value="&lt;b&gt;est originaire de&lt;/b&gt;" style="ellipse;whiteSpace=wrap;html=1;" vertex="1" parent="1">
          <mxGeometry x="270" y="-536" width="120" height="80" as="geometry" />
        </mxCell>
        <mxCell id="O5UgsvlEtAjROx63nmzW-77" style="edgeStyle=orthogonalEdgeStyle;rounded=0;orthogonalLoop=1;jettySize=auto;html=1;entryX=0.5;entryY=0;entryDx=0;entryDy=0;endArrow=none;startFill=0;" edge="1" parent="1" source="O5UgsvlEtAjROx63nmzW-64" target="O5UgsvlEtAjROx63nmzW-45">
          <mxGeometry relative="1" as="geometry" />
        </mxCell>
        <mxCell id="O5UgsvlEtAjROx63nmzW-78" value="0,n" style="edgeLabel;html=1;align=center;verticalAlign=middle;resizable=0;points=[];" vertex="1" connectable="0" parent="O5UgsvlEtAjROx63nmzW-77">
          <mxGeometry x="0.1828" y="2" relative="1" as="geometry">
            <mxPoint as="offset" />
          </mxGeometry>
        </mxCell>
        <mxCell id="O5UgsvlEtAjROx63nmzW-64" value="Blessure" style="swimlane;fontStyle=0;childLayout=stackLayout;horizontal=1;startSize=30;horizontalStack=0;resizeParent=1;resizeParentMax=0;resizeLast=0;collapsible=1;marginBottom=0;whiteSpace=wrap;html=1;" vertex="1" parent="1">
          <mxGeometry x="360" y="-999" width="140" height="90" as="geometry" />
        </mxCell>
        <mxCell id="O5UgsvlEtAjROx63nmzW-65" value="&lt;u&gt;ble_id&lt;/u&gt;" style="text;strokeColor=none;fillColor=none;align=left;verticalAlign=middle;spacingLeft=4;spacingRight=4;overflow=hidden;points=[[0,0.5],[1,0.5]];portConstraint=eastwest;rotatable=0;whiteSpace=wrap;html=1;" vertex="1" parent="O5UgsvlEtAjROx63nmzW-64">
          <mxGeometry y="30" width="140" height="30" as="geometry" />
        </mxCell>
        <mxCell id="O5UgsvlEtAjROx63nmzW-66" value="ble_type" style="text;strokeColor=none;fillColor=none;align=left;verticalAlign=middle;spacingLeft=4;spacingRight=4;overflow=hidden;points=[[0,0.5],[1,0.5]];portConstraint=eastwest;rotatable=0;whiteSpace=wrap;html=1;" vertex="1" parent="O5UgsvlEtAjROx63nmzW-64">
          <mxGeometry y="60" width="140" height="30" as="geometry" />
        </mxCell>
      </root>
    </mxGraphModel>
  </diagram>
</mxfile>
